<svg width="40" height="40" viewBox="0 0 40 40" fill="none" xmlns="http://www.w3.org/2000/svg">
<circle cx="20" cy="20" r="20" fill="#E6F4FF"/>
<g clip-path="url(#clip0_2_909)">
<path d="M18.79 24.29C19.18 24.68 19.81 24.68 20.2 24.29L23.79 20.7C24.18 20.31 24.18 19.68 23.79 19.29L20.2 15.7C19.81 15.31 19.18 15.31 18.79 15.7C18.4 16.09 18.4 16.72 18.79 17.11L20.67 19H12C11.45 19 11 19.45 11 20C11 20.55 11.45 21 12 21H20.67L18.79 22.88C18.4 23.27 18.41 23.91 18.79 24.29ZM27 11H13C11.89 11 11 11.9 11 13V16C11 16.55 11.45 17 12 17C12.55 17 13 16.55 13 16V14C13 13.45 13.45 13 14 13H26C26.55 13 27 13.45 27 14V26C27 26.55 26.55 27 26 27H14C13.45 27 13 26.55 13 26V24C13 23.45 12.55 23 12 23C11.45 23 11 23.45 11 24V27C11 28.1 11.9 29 13 29H27C28.1 29 29 28.1 29 27V13C29 11.9 28.1 11 27 11Z" fill="#008FFF"/>
</g>
<defs>
<clipPath id="clip0_2_909">
<rect width="24" height="24" fill="white" transform="translate(8 8)"/>
</clipPath>
</defs>
</svg>
