<svg width="40" height="40" viewBox="0 0 40 40" fill="none" xmlns="http://www.w3.org/2000/svg">
<circle cx="20" cy="20" r="20" fill="#E6F4FF"/>
<g clip-path="url(#clip0_2_938)">
<path d="M11 11H29C29.2652 11 29.5196 11.1054 29.7071 11.2929C29.8946 11.4804 30 11.7348 30 12V28C30 28.2652 29.8946 28.5196 29.7071 28.7071C29.5196 28.8946 29.2652 29 29 29H11C10.7348 29 10.4804 28.8946 10.2929 28.7071C10.1054 28.5196 10 28.2652 10 28V12C10 11.7348 10.1054 11.4804 10.2929 11.2929C10.4804 11.1054 10.7348 11 11 11ZM12 13V27H28V13H12Z" fill="#008FFF"/>
<path d="M16.3401 17.2618C16.2494 17.2618 16.1678 17.2318 16.0952 17.1717C16.0317 17.103 16 17.0258 16 16.9399V16.3219C16 16.2275 16.0317 16.1502 16.0952 16.0901C16.1587 16.03 16.2404 16 16.3401 16H23.6599C23.7596 16 23.8413 16.03 23.9048 16.0901C23.9683 16.1502 24 16.2275 24 16.3219V16.9399C24 17.0343 23.9683 17.1116 23.9048 17.1717C23.8413 17.2318 23.7596 17.2618 23.6599 17.2618H16.3401ZM19.102 25C19.0113 25 18.9297 24.97 18.8571 24.9099C18.7937 24.8412 18.7619 24.7639 18.7619 24.6781V19.6567H16.3401C16.2494 19.6567 16.1678 19.6266 16.0952 19.5665C16.0317 19.4979 16 19.4206 16 19.3348V18.3691C16 18.2747 16.0317 18.1974 16.0952 18.1373C16.1587 18.0687 16.2404 18.0343 16.3401 18.0343H23.6599C23.7596 18.0343 23.8413 18.0687 23.9048 18.1373C23.9683 18.1974 24 18.2747 24 18.3691V19.3348C24 19.4292 23.9683 19.5064 23.9048 19.5665C23.8413 19.6266 23.7596 19.6567 23.6599 19.6567H21.2381V24.6781C21.2381 24.7639 21.2063 24.8412 21.1429 24.9099C21.0794 24.97 20.9977 25 20.898 25H19.102Z" fill="#008FFF"/>
</g>
<defs>
<clipPath id="clip0_2_938">
<rect width="24" height="24" fill="white" transform="translate(8 8)"/>
</clipPath>
</defs>
</svg>
