<svg width="120" height="56" viewBox="0 0 120 56" fill="none" xmlns="http://www.w3.org/2000/svg">
<g clip-path="url(#clip0_2_874)">
<g filter="url(#filter0_d_2_874)">
<path d="M61.26 19C56.17 18.86 52 22.95 52 28H50.21C49.76 28 49.54 28.54 49.86 28.85L52.65 31.65C52.85 31.85 53.16 31.85 53.36 31.65L56.15 28.85C56.46 28.54 56.24 28 55.79 28H54C54 24.1 57.18 20.95 61.1 21C64.82 21.05 67.95 24.18 68 27.9C68.05 31.81 64.9 35 61 35C59.39 35 57.9 34.45 56.72 33.52C56.32 33.21 55.76 33.24 55.4 33.6C54.98 34.02 55.01 34.73 55.48 35.09C57 36.29 58.91 37 61 37C66.05 37 70.14 32.83 70 27.74C69.87 23.05 65.95 19.13 61.26 19ZM60.75 24C60.34 24 60 24.34 60 24.75V28.43C60 28.78 60.19 29.11 60.49 29.29L63.61 31.14C63.97 31.35 64.43 31.23 64.64 30.88C64.85 30.52 64.73 30.06 64.38 29.85L61.5 28.14V24.74C61.5 24.34 61.16 24 60.75 24Z" fill="#9AA7B3"/>
</g>
</g>
<defs>
<filter id="filter0_d_2_874" x="45.7085" y="18.9965" width="28.295" height="26.0035" filterUnits="userSpaceOnUse" color-interpolation-filters="sRGB">
<feFlood flood-opacity="0" result="BackgroundImageFix"/>
<feColorMatrix in="SourceAlpha" type="matrix" values="0 0 0 0 0 0 0 0 0 0 0 0 0 0 0 0 0 0 127 0" result="hardAlpha"/>
<feOffset dy="4"/>
<feGaussianBlur stdDeviation="2"/>
<feComposite in2="hardAlpha" operator="out"/>
<feColorMatrix type="matrix" values="0 0 0 0 0 0 0 0 0 0 0 0 0 0 0 0 0 0 0.25 0"/>
<feBlend mode="normal" in2="BackgroundImageFix" result="effect1_dropShadow_2_874"/>
<feBlend mode="normal" in="SourceGraphic" in2="effect1_dropShadow_2_874" result="shape"/>
</filter>
<clipPath id="clip0_2_874">
<rect width="24" height="24" fill="white" transform="translate(48 16)"/>
</clipPath>
</defs>
</svg>
