<svg width="120" height="56" viewBox="0 0 120 56" fill="none" xmlns="http://www.w3.org/2000/svg">
<g clip-path="url(#clip0_2_878)">
<path d="M58 35V30H62V35C62 35.55 62.45 36 63 36H66C66.55 36 67 35.55 67 35V28H68.7C69.16 28 69.38 27.43 69.03 27.13L60.67 19.6C60.29 19.26 59.71 19.26 59.33 19.6L50.97 27.13C50.63 27.43 50.84 28 51.3 28H53V35C53 35.55 53.45 36 54 36H57C57.55 36 58 35.55 58 35Z" fill="#9AA7B3"/>
</g>
<defs>
<clipPath id="clip0_2_878">
<rect width="24" height="24" fill="white" transform="translate(48 16)"/>
</clipPath>
</defs>
</svg>
