<svg width="24" height="15" viewBox="0 0 24 15" fill="none" xmlns="http://www.w3.org/2000/svg">
<path fill-rule="evenodd" clip-rule="evenodd" d="M11.7692 0C6.51277 0 2.0238 3.11 0.205078 7.5C2.0238 11.89 6.51277 15 11.7692 15C17.0256 15 21.5146 11.89 23.3333 7.5C21.5146 3.11 17.0256 0 11.7692 0ZM11.7692 12.5C8.86764 12.5 6.51277 10.26 6.51277 7.5C6.51277 4.74 8.86764 2.5 11.7692 2.5C14.6707 2.5 17.0256 4.74 17.0256 7.5C17.0256 10.26 14.6707 12.5 11.7692 12.5ZM8.61534 7.5C8.61534 5.84 10.0241 4.5 11.7692 4.5C13.5143 4.5 14.923 5.84 14.923 7.5C14.923 9.16 13.5143 10.5 11.7692 10.5C10.0241 10.5 8.61534 9.16 8.61534 7.5Z" fill="#CDD3D9"/>
</svg>
