<svg width="40" height="40" viewBox="0 0 40 40" fill="none" xmlns="http://www.w3.org/2000/svg">
<circle cx="20" cy="20" r="20" fill="#E6F4FF"/>
<g clip-path="url(#clip0_2_929)">
<path d="M28 12H12C10.89 12 10.01 12.89 10.01 14L10 26C10 27.11 10.89 28 12 28H28C29.11 28 30 27.11 30 26V14C30 12.89 29.11 12 28 12ZM27 26H13C12.45 26 12 25.55 12 25V20H28V25C28 25.55 27.55 26 27 26ZM28 16H12V14H28V16Z" fill="#008FFF"/>
</g>
<defs>
<clipPath id="clip0_2_929">
<rect width="24" height="24" fill="white" transform="translate(8 8)"/>
</clipPath>
</defs>
</svg>
