<svg width="120" height="56" viewBox="0 0 120 56" fill="none" xmlns="http://www.w3.org/2000/svg">
<path d="M40.4887 43.8H39.3578V36.1945H35.1508V43.8H34.0258V35.2687H40.4887V43.8ZM48.125 40.7004C48.125 41.6652 47.9043 42.4426 47.4629 43.0324C47.0215 43.6223 46.4238 43.9172 45.6699 43.9172C44.9004 43.9172 44.2949 43.673 43.8535 43.1848V46.2375H42.7695V37.4601H43.7598L43.8125 38.1633C44.2539 37.6164 44.8672 37.343 45.6523 37.343C46.4141 37.343 47.0156 37.6301 47.457 38.2043C47.9023 38.7785 48.125 39.5773 48.125 40.6008V40.7004ZM47.041 40.5773C47.041 39.8625 46.8887 39.298 46.584 38.884C46.2793 38.4699 45.8613 38.2629 45.3301 38.2629C44.6738 38.2629 44.1816 38.5539 43.8535 39.1359V42.1652C44.1777 42.7433 44.6738 43.0324 45.3418 43.0324C45.8613 43.0324 46.2734 42.8273 46.5781 42.4172C46.8867 42.0031 47.041 41.3898 47.041 40.5773ZM49.6207 40.5715C49.6207 39.9504 49.7418 39.3918 49.984 38.8957C50.2301 38.3996 50.5699 38.0168 51.0035 37.7473C51.441 37.4777 51.9391 37.343 52.4977 37.343C53.3609 37.343 54.0582 37.6418 54.5895 38.2394C55.1246 38.8371 55.3922 39.632 55.3922 40.6242V40.7004C55.3922 41.3176 55.273 41.8723 55.0348 42.3644C54.8004 42.8527 54.4625 43.2336 54.0211 43.507C53.5836 43.7805 53.0797 43.9172 52.5094 43.9172C51.65 43.9172 50.9527 43.6183 50.4176 43.0207C49.8863 42.423 49.6207 41.632 49.6207 40.6476V40.5715ZM50.7105 40.7004C50.7105 41.4035 50.8727 41.968 51.1969 42.3937C51.525 42.8195 51.9625 43.0324 52.5094 43.0324C53.0602 43.0324 53.4977 42.8176 53.8219 42.3879C54.1461 41.9543 54.3082 41.3488 54.3082 40.5715C54.3082 39.8762 54.1422 39.3137 53.8102 38.884C53.482 38.4504 53.0445 38.2336 52.4977 38.2336C51.9625 38.2336 51.5309 38.4465 51.2027 38.8723C50.8746 39.298 50.7105 39.9074 50.7105 40.7004ZM56.9172 40.7473C56.9172 39.6887 57.1223 38.8566 57.5324 38.2512C57.9426 37.6457 58.5051 37.343 59.2199 37.343C59.552 37.343 59.843 37.3996 60.093 37.5129V34.8H61.177V37.548C61.4504 37.4113 61.7707 37.343 62.1379 37.343C62.8566 37.343 63.4211 37.6457 63.8313 38.2512C64.2414 38.8566 64.4465 39.7297 64.4465 40.8703C64.4465 41.8039 64.2414 42.5461 63.8313 43.0969C63.425 43.6476 62.8645 43.923 62.1496 43.923C61.7707 43.923 61.4465 43.8605 61.177 43.7355V46.2375H60.093V43.7531C59.8352 43.8664 59.5402 43.923 59.2082 43.923C58.4973 43.923 57.9367 43.6476 57.5266 43.0969C57.1203 42.5461 56.9172 41.7922 56.9172 40.8351V40.7473ZM63.3625 40.7473C63.3625 39.9504 63.2258 39.3332 62.9523 38.8957C62.6789 38.4543 62.302 38.2336 61.8215 38.2336C61.5754 38.2336 61.3605 38.2726 61.177 38.3508V42.9387C61.3527 43.0051 61.5715 43.0383 61.8332 43.0383C62.3176 43.0383 62.6926 42.8508 62.9582 42.4758C63.2277 42.1008 63.3625 41.5246 63.3625 40.7473ZM58.0012 40.8703C58.0012 41.5812 58.1281 42.1203 58.382 42.4875C58.6359 42.8547 59.0012 43.0383 59.4777 43.0383C59.7043 43.0383 59.9094 43.0031 60.093 42.9328V38.3332C59.9289 38.2668 59.7277 38.2336 59.4895 38.2336C59.0129 38.2336 58.6457 38.4465 58.3879 38.8723C58.1301 39.298 58.0012 39.9641 58.0012 40.8703ZM70.3602 37.4601H71.4441V43.8H70.3602V39.1769L67.4363 43.8H66.3523V37.4601H67.4363V42.0891L70.3602 37.4601ZM78.7816 37.4601V43.8H77.6918V38.3566H75.5355L75.4066 40.7297C75.3363 41.8195 75.1527 42.5988 74.8559 43.0676C74.5629 43.5363 74.0961 43.7805 73.4555 43.8H73.0219V42.8449L73.3324 42.8215C73.684 42.7824 73.9359 42.5793 74.0883 42.2121C74.2406 41.8449 74.3383 41.1652 74.3812 40.173L74.4984 37.4601H78.7816ZM82.1055 39.6457H83.752C84.4707 39.6535 85.0391 39.841 85.457 40.2082C85.875 40.5754 86.084 41.0734 86.084 41.7023C86.084 42.3351 85.8691 42.843 85.4395 43.2258C85.0098 43.6086 84.4316 43.8 83.7051 43.8H81.0215V37.4601H82.1055V39.6457ZM82.1055 40.5305V42.9152H83.7168C84.123 42.9152 84.4375 42.8117 84.6602 42.6047C84.8828 42.3937 84.9941 42.1066 84.9941 41.7433C84.9941 41.3918 84.8848 41.1047 84.666 40.882C84.4512 40.6555 84.1484 40.5383 83.7578 40.5305H82.1055Z" fill="#008FFF"/>
<g clip-path="url(#clip0_2_882)">
<path d="M51 13V27C51 28.1 51.89 29 53 29H67C68.1 29 69 28.1 69 27V13C69 11.9 68.1 11 67 11H53C51.89 11 51 11.9 51 13ZM63 17C63 18.66 61.66 20 60 20C58.34 20 57 18.66 57 17C57 15.34 58.34 14 60 14C61.66 14 63 15.34 63 17ZM54 25C54 23 58 21.9 60 21.9C62 21.9 66 23 66 25V26H54V25Z" fill="#008FFF"/>
</g>
<defs>
<clipPath id="clip0_2_882">
<rect width="24" height="24" fill="white" transform="translate(48 8)"/>
</clipPath>
</defs>
</svg>
