<svg width="40" height="40" viewBox="0 0 40 40" fill="none" xmlns="http://www.w3.org/2000/svg">
<circle cx="20" cy="20" r="20" fill="#E6F4FF"/>
<path d="M19.4 9.01999C14.62 9.32999 11 13.52 11 18.31V25C11 26.66 12.34 28 14 28H15C16.1 28 17 27.1 17 26V22C17 20.9 16.1 20 15 20H13V18.29C13 14.45 15.96 11.11 19.79 11C23.76 10.89 27 14.06 27 18V20H25C23.9 20 23 20.9 23 22V26C23 27.1 23.9 28 25 28H27V29H21C20.45 29 20 29.45 20 30C20 30.55 20.45 31 21 31H26C27.66 31 29 29.66 29 28V18C29 12.83 24.64 8.67999 19.4 9.01999V9.01999Z" fill="#008FFF"/>
</svg>
